<svg xmlns="http://www.w3.org/2000/svg" xmlns:xlink="http://www.w3.org/1999/xlink" viewBox="0 0 68.98 68.98"><defs><style>.cls-1{fill:none;}.cls-2{isolation:isolate;}.cls-3{fill:#a7adc6;stroke:#000;}.cls-3,.cls-4,.cls-5{stroke-miterlimit:10;}.cls-11,.cls-12,.cls-14,.cls-4,.cls-6{fill:#fff;}.cls-4,.cls-5{stroke:#38211e;}.cls-5{fill:#f2c896;}.cls-6{font-size:8.12px;font-family:ACaslonPro-Regular, Adobe Caslon Pro;letter-spacing:0.11em;}.cls-7{letter-spacing:0.1em;}.cls-8{letter-spacing:0.11em;}.cls-9{fill:#b18151;}.cls-10{opacity:0.83;}.cls-11{mix-blend-mode:soft-light;}.cls-12{opacity:0.71;mix-blend-mode:luminosity;}.cls-13{clip-path:url(#clip-path);}</style><clipPath id="clip-path"><rect class="cls-1" x="18.13" y="14.77" width="24.04" height="27.08"/></clipPath></defs><g class="cls-2"><g id="Layer_2" data-name="Layer 2"><g id="Background"><rect class="cls-3" x="0.5" y="0.5" width="67.98" height="67.98" rx="11.47"/></g><g id="Foam"><rect id="Mug_handle" data-name="Mug handle" class="cls-4" x="41.66" y="27.26" width="21.27" height="6.75"/><circle id="Mug" class="cls-4" cx="30.15" cy="29.23" r="23.6"/><circle id="Coffee" class="cls-5" cx="30.15" cy="29.24" r="19.18"/><text class="cls-6" transform="translate(13.27 62.03)">unfilte<tspan class="cls-7" x="26.42" y="0">r</tspan><tspan class="cls-8" x="30.01" y="0">ed</tspan></text><circle class="cls-9" cx="15.8" cy="32.69" r="0.51"/><circle class="cls-9" cx="18.53" cy="41.47" r="0.41"/><circle class="cls-9" cx="46.96" cy="28.24" r="0.51"/><circle class="cls-9" cx="28.55" cy="11.46" r="0.43"/><circle class="cls-9" cx="33.51" cy="45.08" r="0.51"/><circle class="cls-9" cx="16.71" cy="17.99" r="0.26"/><circle class="cls-9" cx="23.89" cy="12.98" r="0.26"/><circle class="cls-9" cx="37.16" cy="14.38" r="0.26"/><circle class="cls-9" cx="45.33" cy="31.92" r="0.26"/><circle class="cls-9" cx="43.57" cy="39.9" r="0.26"/><circle class="cls-9" cx="30.2" cy="43.65" r="0.26"/><circle class="cls-9" cx="30.2" cy="43.65" r="0.26"/><circle class="cls-9" cx="39.54" cy="43.65" r="0.26"/><circle class="cls-9" cx="23.63" cy="44.82" r="0.26"/><circle class="cls-9" cx="13.56" cy="24.85" r="0.26"/><circle class="cls-9" cx="16.97" cy="37.17" r="0.26"/><circle class="cls-9" cx="44.46" cy="27.4" r="0.26"/><circle class="cls-9" cx="45.58" cy="23.59" r="0.26"/><circle class="cls-9" cx="15.54" cy="21.34" r="0.77"/><circle class="cls-9" cx="21.41" cy="15.41" r="0.77"/><circle class="cls-9" cx="37.16" cy="28.76" r="0.77"/><circle class="cls-9" cx="42.8" cy="17.73" r="0.77"/><circle class="cls-9" cx="13.81" cy="28.24" r="0.99"/><circle class="cls-9" cx="45.33" cy="36.05" r="1.12"/><circle class="cls-9" cx="15.8" cy="32.69" r="0.51"/><circle class="cls-9" cx="18.53" cy="41.47" r="0.41"/><circle class="cls-9" cx="46.96" cy="28.24" r="0.51"/><circle class="cls-9" cx="28.55" cy="11.46" r="0.43"/><circle class="cls-9" cx="13.81" cy="36.05" r="0.43"/><circle class="cls-9" cx="33.51" cy="45.08" r="0.51"/><circle class="cls-9" cx="26.74" cy="25.84" r="0.51"/><circle class="cls-9" cx="30.46" cy="31.24" r="0.51"/><circle class="cls-9" cx="16.71" cy="17.99" r="0.26"/><circle class="cls-9" cx="23.89" cy="12.98" r="0.26"/><circle class="cls-9" cx="37.16" cy="14.38" r="0.26"/><circle class="cls-9" cx="45.33" cy="31.92" r="0.26"/><circle class="cls-9" cx="43.57" cy="39.9" r="0.26"/><circle class="cls-9" cx="30.2" cy="43.65" r="0.26"/><circle class="cls-9" cx="30.2" cy="43.65" r="0.26"/><circle class="cls-9" cx="39.54" cy="43.65" r="0.26"/><circle class="cls-9" cx="23.63" cy="44.82" r="0.26"/><circle class="cls-9" cx="13.56" cy="24.85" r="0.26"/><circle class="cls-9" cx="16.97" cy="37.17" r="0.26"/><circle class="cls-9" cx="44.46" cy="27.4" r="0.26"/><circle class="cls-9" cx="45.58" cy="23.59" r="0.26"/><circle class="cls-9" cx="31.53" cy="27.11" r="0.26"/><circle class="cls-9" cx="25.21" cy="29.24" r="0.26"/><circle class="cls-9" cx="20.64" cy="27.99" r="0.26"/><circle class="cls-9" cx="15.54" cy="21.34" r="0.77"/><circle class="cls-9" cx="21.41" cy="15.41" r="0.77"/><circle class="cls-9" cx="37.16" cy="28.76" r="0.77"/><circle class="cls-9" cx="42.8" cy="17.73" r="0.77"/><circle class="cls-9" cx="27.26" cy="45.59" r="0.77"/><circle class="cls-9" cx="13.81" cy="28.24" r="0.99"/><circle class="cls-9" cx="45.33" cy="36.05" r="1.12"/><g class="cls-10"><path class="cls-11" d="M41.13,20.6a11.41,11.41,0,0,0-7.08-4.46,15.77,15.77,0,0,0-8.68.93,14,14,0,0,0-6.49,5.09,12.71,12.71,0,0,0-2.06,7.39,13.51,13.51,0,0,0,2.37,7.72A12.37,12.37,0,0,0,26.53,42a15,15,0,0,0,2.23.31,12.15,12.15,0,0,0,6.91-.62,11.5,11.5,0,0,0,6.14-5.32,16.44,16.44,0,0,0,1.54-7.72A13.4,13.4,0,0,0,41.13,20.6Zm1,13.61a9.85,9.85,0,0,1-4.33,6.24,12,12,0,0,1-8,1.54A8.9,8.9,0,0,1,28,41.43c-.09,0-.29.11-.44.24a13.06,13.06,0,0,1-6.19-3.1,12.15,12.15,0,0,1-3.68-7.12,14,14,0,0,1,.61-7.27,11.13,11.13,0,0,1,4.9-5.83,15.66,15.66,0,0,1,8.24-2,11.94,11.94,0,0,1,7.65,3,11.3,11.3,0,0,1,3.51,7,21.5,21.5,0,0,1,.14,4.09A18,18,0,0,1,42.17,34.21Z"/><path class="cls-11" d="M19.63,40.73a11.5,11.5,0,0,0,7.9,4.57,15.52,15.52,0,0,0,9.54-2.37,18,18,0,0,0,6.74-7.74,16.18,16.18,0,0,0,1.39-9.48A13.68,13.68,0,0,0,41,18a14.43,14.43,0,0,0-8.23-3.58,19.6,19.6,0,0,0-9.51,1.37,20.44,20.44,0,0,0-2.17,1c-.07,0-.11.19-.14.31a10.3,10.3,0,0,0-5.3,5.43,14,14,0,0,0-.16,9.57A25.61,25.61,0,0,0,19.63,40.73Zm-2.86-6.28c-1.11-2.83-2.12-6-1.69-9.21A9.14,9.14,0,0,1,16.81,21a9.65,9.65,0,0,1,3.57-3,7.29,7.29,0,0,1,2.2-.64c.15,0,.25-.68.2-.67l-.24,0A20.15,20.15,0,0,1,30.12,15a16,16,0,0,1,8.5,2,13.34,13.34,0,0,1,5.56,6.54,14,14,0,0,1,.49,8.92,17.18,17.18,0,0,1-5.35,8.29,16.33,16.33,0,0,1-9,3.9,12.36,12.36,0,0,1-4.56-.38,11,11,0,0,1-4-2.16A18.65,18.65,0,0,1,16.77,34.45Z"/><path class="cls-12" d="M47.35,26a20.37,20.37,0,0,0-4.81-9.44,14.07,14.07,0,0,0-4.34-3.36,12.08,12.08,0,0,0-6-1.07,29.07,29.07,0,0,0-6.35,1.2,25.48,25.48,0,0,0-5.31,2.12,15.52,15.52,0,0,0-4.52,3.7,15.08,15.08,0,0,0-2.59,4.79,18.69,18.69,0,0,0-.31,10.53,16.67,16.67,0,0,0,5.69,8.85,17.41,17.41,0,0,0,9.9,3.76A15.69,15.69,0,0,0,31.21,47c-.1.08-.19.18-.26.24s-.29.33-.16.32A18.28,18.28,0,0,0,40.21,44a18.74,18.74,0,0,0,6.29-7.76A17.44,17.44,0,0,0,47.35,26Zm-.68,7.86a16,16,0,0,1-4.49,8.24,17.22,17.22,0,0,1-8.3,4.44,16.8,16.8,0,0,1-2.24.33,1.69,1.69,0,0,0,.27-.26s.29-.33.17-.32A16.78,16.78,0,0,1,21.9,44.18,16.6,16.6,0,0,1,15,36.73a18.32,18.32,0,0,1-1.49-10.1c.44-3.34,1.75-6.89,4.55-9.2a17,17,0,0,1,4.74-2.61,34.2,34.2,0,0,1,5.66-1.6A16.93,16.93,0,0,1,34.83,13a11.43,11.43,0,0,1,4.9,2.3,19.46,19.46,0,0,1,6,8.45A18.48,18.48,0,0,1,46.67,33.84Z"/></g><g class="cls-13"><path class="cls-14" d="M32.05,32.93a9.69,9.69,0,0,1-4.22,0c-1.13-.31-2.21-.71-3.33-1a5.93,5.93,0,0,0-3.31-.18,3.07,3.07,0,0,0-1.94,1.7,4.69,4.69,0,0,0-.06,3.2c.57,2,2,4.81,4.78,5.19a9.55,9.55,0,0,0,3.64-.49,7.06,7.06,0,0,1,4.67,0,9.5,9.5,0,0,0,3.63.49c2.74-.38,4.21-3.22,4.78-5.19a4.75,4.75,0,0,0,0-3.2,3.11,3.11,0,0,0-2-1.7,5.93,5.93,0,0,0-3.31.18c-1.12.32-2.2.72-3.33,1m2.62,6.49A2.39,2.39,0,1,1,37.06,37a2.39,2.39,0,0,1-2.39,2.39m0-.77h0a.43.43,0,0,1-.43-.43v-.76h-.76a.43.43,0,0,1-.43-.43.44.44,0,0,1,.43-.43h.76v-.75a.43.43,0,0,1,.86,0v.75h.75a.43.43,0,0,1,.43.43.43.43,0,0,1-.43.43H35.1v.76a.43.43,0,0,1-.43.43M26,35.49a.77.77,0,1,1-.77-.77.78.78,0,0,1,.77.77m-2.4,2.39a.77.77,0,1,1,0-1.53.77.77,0,1,1,0,1.53m2.4.86a.77.77,0,0,1-1.54,0,.77.77,0,0,1,1.54,0m.85-.86a.77.77,0,1,1,0-1.53.77.77,0,1,1,0,1.53"/><path class="cls-14" d="M19.11,31.69c-1.37-3-1.26-7.52.05-9.94.13,1.39,1.72,2.47,1.6,3.54.52-1.19-1.59-2.58-1-4.83A3.48,3.48,0,0,1,22.62,18a6,6,0,0,0-.47,6.26c1,2.24-1.72,2-2.95,3.27A7,7,0,0,1,20.69,27c-.7.63-1.38,2.72-1.58,4.68m13-8.62c-5.15-.8-8.74,4.47-9.48-.61a5.71,5.71,0,0,1,2.59-5.78c3-1.75,7.79-.92,9.53-1.91-1.37,2.71-6.52,2.48-8,5.77,3.1-3.93,10.36-1.92,12-3.18-.32,2.75-4.5,1.73-6.8,3.32,4.22-1.61,6.55,1.28,9.39.49-.28,3.22-5.1.6-6.89.87,2.44.22,5.51,3.43,7.62,2.62-1.17,4.56-9.46-1.28-14-.27a6.72,6.72,0,0,1,3.93-1.32m8.48,8.45a6.76,6.76,0,0,0-2.68-4.84c1.28.53,2.63.15,3.06.58s.33,3.11-.38,4.26"/></g></g></g></g></svg>