<svg xmlns="http://www.w3.org/2000/svg" xmlns:xlink="http://www.w3.org/1999/xlink" viewBox="0 0 66.87 56.31"><defs><style>.cls-1{fill:none;}.cls-2{isolation:isolate;}.cls-10,.cls-3,.cls-7,.cls-8{fill:#fff;}.cls-3,.cls-4{stroke:#38211e;stroke-miterlimit:10;stroke-width:2px;}.cls-4{fill:#f2c896;}.cls-5{fill:#b18151;}.cls-6{opacity:0.83;}.cls-7{mix-blend-mode:soft-light;}.cls-8{opacity:0.71;mix-blend-mode:luminosity;}.cls-9{clip-path:url(#clip-path);}</style><clipPath id="clip-path"><rect class="cls-1" x="14.32" y="11.51" width="27.66" height="31.16"/></clipPath></defs><g class="cls-2"><g id="Layer_2" data-name="Layer 2"><g id="Layer_1-2" data-name="Layer 1"><rect id="Mug_handle" data-name="Mug handle" class="cls-3" x="41.4" y="25.88" width="24.47" height="7.77"/><circle id="Mug" class="cls-3" cx="28.15" cy="28.15" r="27.15"/><circle id="Coffee" class="cls-4" cx="28.15" cy="28.16" r="22.07"/></g><g id="bubbles"><circle class="cls-5" cx="11.64" cy="32.13" r="0.59"/><circle class="cls-5" cx="14.79" cy="42.24" r="0.47"/><circle class="cls-5" cx="47.5" cy="27.01" r="0.59"/><circle class="cls-5" cx="26.32" cy="7.71" r="0.49"/><circle class="cls-5" cx="32.03" cy="46.38" r="0.59"/><circle class="cls-5" cx="12.7" cy="15.21" r="0.3"/><circle class="cls-5" cx="20.95" cy="9.45" r="0.3"/><circle class="cls-5" cx="36.22" cy="11.06" r="0.3"/><circle class="cls-5" cx="45.62" cy="31.24" r="0.3"/><circle class="cls-5" cx="43.6" cy="40.43" r="0.3"/><circle class="cls-5" cx="28.22" cy="44.74" r="0.3"/><circle class="cls-5" cx="28.22" cy="44.74" r="0.3"/><circle class="cls-5" cx="38.97" cy="44.74" r="0.3"/><circle class="cls-5" cx="20.66" cy="46.09" r="0.3"/><circle class="cls-5" cx="9.06" cy="23.11" r="0.3"/><circle class="cls-5" cx="12.99" cy="37.29" r="0.3"/><circle class="cls-5" cx="44.63" cy="26.05" r="0.3"/><circle class="cls-5" cx="45.92" cy="21.65" r="0.3"/><circle class="cls-5" cx="11.34" cy="19.07" r="0.89"/><circle class="cls-5" cx="18.1" cy="12.24" r="0.89"/><circle class="cls-5" cx="36.22" cy="27.6" r="0.89"/><circle class="cls-5" cx="42.71" cy="14.92" r="0.89"/><circle class="cls-5" cx="9.36" cy="27.01" r="1.14"/><circle class="cls-5" cx="45.62" cy="36" r="1.29"/><circle class="cls-5" cx="11.64" cy="32.13" r="0.59"/><circle class="cls-5" cx="14.79" cy="42.24" r="0.47"/><circle class="cls-5" cx="47.5" cy="27.01" r="0.59"/><circle class="cls-5" cx="26.32" cy="7.71" r="0.49"/><circle class="cls-5" cx="9.36" cy="36" r="0.49"/><circle class="cls-5" cx="32.03" cy="46.38" r="0.59"/><circle class="cls-5" cx="24.24" cy="24.24" r="0.59"/><circle class="cls-5" cx="28.51" cy="30.46" r="0.59"/><circle class="cls-5" cx="12.7" cy="15.21" r="0.3"/><circle class="cls-5" cx="20.95" cy="9.45" r="0.3"/><circle class="cls-5" cx="36.22" cy="11.06" r="0.3"/><circle class="cls-5" cx="45.62" cy="31.24" r="0.3"/><circle class="cls-5" cx="43.6" cy="40.43" r="0.3"/><circle class="cls-5" cx="28.22" cy="44.74" r="0.3"/><circle class="cls-5" cx="28.22" cy="44.74" r="0.3"/><circle class="cls-5" cx="38.97" cy="44.74" r="0.3"/><circle class="cls-5" cx="20.66" cy="46.09" r="0.3"/><circle class="cls-5" cx="9.06" cy="23.11" r="0.3"/><circle class="cls-5" cx="12.99" cy="37.29" r="0.3"/><circle class="cls-5" cx="44.63" cy="26.05" r="0.3"/><circle class="cls-5" cx="45.92" cy="21.65" r="0.3"/><circle class="cls-5" cx="29.75" cy="25.71" r="0.3"/><circle class="cls-5" cx="22.48" cy="28.16" r="0.3"/><circle class="cls-5" cx="17.21" cy="26.72" r="0.3"/><circle class="cls-5" cx="11.34" cy="19.07" r="0.89"/><circle class="cls-5" cx="18.1" cy="12.24" r="0.89"/><circle class="cls-5" cx="36.22" cy="27.6" r="0.89"/><circle class="cls-5" cx="42.71" cy="14.92" r="0.89"/><circle class="cls-5" cx="24.83" cy="46.98" r="0.89"/><circle class="cls-5" cx="9.36" cy="27.01" r="1.14"/><circle class="cls-5" cx="45.62" cy="36" r="1.29"/></g><g id="Foam"><g class="cls-6"><path class="cls-7" d="M40.79,18.22a13.16,13.16,0,0,0-8.15-5.14,18.2,18.2,0,0,0-10,1.08A16.12,16.12,0,0,0,15.19,20a14.72,14.72,0,0,0-2.38,8.51,15.66,15.66,0,0,0,2.74,8.89A14.24,14.24,0,0,0,24,42.87a15.75,15.75,0,0,0,2.57.36,13.91,13.91,0,0,0,8-.71,13.28,13.28,0,0,0,7.06-6.12,18.94,18.94,0,0,0,1.78-8.88A15.48,15.48,0,0,0,40.79,18.22ZM42,33.88a11.34,11.34,0,0,1-5,7.18,13.88,13.88,0,0,1-9.2,1.77,10.11,10.11,0,0,1-2.17-.64c-.1,0-.34.12-.51.28A15.11,15.11,0,0,1,18,38.9a14,14,0,0,1-4.24-8.2,16.12,16.12,0,0,1,.7-8.36,12.87,12.87,0,0,1,5.64-6.71,18.15,18.15,0,0,1,9.49-2.29,13.75,13.75,0,0,1,8.8,3.5,13,13,0,0,1,4,8.07,25.6,25.6,0,0,1,.16,4.71A20.55,20.55,0,0,1,42,33.88Z"/><path class="cls-7" d="M16.05,41.38a13.21,13.21,0,0,0,9.09,5.26,17.87,17.87,0,0,0,11-2.73A20.51,20.51,0,0,0,43.88,35a18.73,18.73,0,0,0,1.6-10.91,15.77,15.77,0,0,0-4.81-8.91,16.56,16.56,0,0,0-9.46-4.12,22.62,22.62,0,0,0-10.95,1.58,23.56,23.56,0,0,0-2.49,1.18.64.64,0,0,0-.16.35,11.91,11.91,0,0,0-6.1,6.26c-1.6,3.72-1.18,7.58-.18,11A29,29,0,0,0,16.05,41.38Zm-3.29-7.22c-1.27-3.26-2.43-6.86-1.95-10.6a10.62,10.62,0,0,1,2-4.91,11.09,11.09,0,0,1,4.12-3.5,8.24,8.24,0,0,1,2.53-.74c.17,0,.28-.78.22-.77l-.27,0a23,23,0,0,1,8.73-2,18.44,18.44,0,0,1,9.77,2.35,15.25,15.25,0,0,1,6.4,7.52,16.06,16.06,0,0,1,.57,10.26,19.82,19.82,0,0,1-6.16,9.55,18.93,18.93,0,0,1-10.36,4.49,14.1,14.1,0,0,1-5.25-.45,12.67,12.67,0,0,1-4.6-2.49A21.49,21.49,0,0,1,12.76,34.16Z"/><path class="cls-8" d="M48,24.41a23.48,23.48,0,0,0-5.54-10.87,16.54,16.54,0,0,0-5-3.87,14,14,0,0,0-6.87-1.22,32.8,32.8,0,0,0-7.3,1.38,29.06,29.06,0,0,0-6.12,2.44,17.68,17.68,0,0,0-5.2,4.26A17.18,17.18,0,0,0,9,22a21.55,21.55,0,0,0-.36,12.12,19.2,19.2,0,0,0,6.55,10.18,20,20,0,0,0,11.39,4.33,17,17,0,0,0,2.85-.09,2.1,2.1,0,0,0-.3.29s-.33.38-.19.37a21,21,0,0,0,10.84-4.09A21.47,21.47,0,0,0,47,36.23,20,20,0,0,0,48,24.41Zm-.78,9A18.45,18.45,0,0,1,42,42.94,19.75,19.75,0,0,1,32.45,48a20.33,20.33,0,0,1-2.58.39c.12-.1.24-.22.32-.3s.32-.38.19-.37a19.3,19.3,0,0,1-11.71-2.41,19,19,0,0,1-8-8.57A21,21,0,0,1,9,25.15c.51-3.84,2-7.92,5.24-10.58a19.69,19.69,0,0,1,5.45-3,41.18,41.18,0,0,1,6.52-1.84,19.3,19.3,0,0,1,7.38-.27,13.38,13.38,0,0,1,5.65,2.64,22.46,22.46,0,0,1,6.93,9.73A21.22,21.22,0,0,1,47.17,33.45Z"/></g><g class="cls-9"><path class="cls-10" d="M30.34,32.4a10.73,10.73,0,0,1-4.85,0c-1.3-.35-2.54-.81-3.83-1.18A6.78,6.78,0,0,0,17.85,31a3.61,3.61,0,0,0-2.24,2,5.41,5.41,0,0,0-.06,3.68c.65,2.27,2.35,5.54,5.5,6a10.78,10.78,0,0,0,4.18-.57,8.11,8.11,0,0,1,5.37,0,10.8,10.8,0,0,0,4.19.57c3.14-.44,4.84-3.71,5.49-6A5.35,5.35,0,0,0,40.22,33,3.59,3.59,0,0,0,38,31a6.78,6.78,0,0,0-3.81.21c-1.29.37-2.54.83-3.84,1.18m3,7.48a2.75,2.75,0,1,1,2.75-2.75,2.75,2.75,0,0,1-2.75,2.75m0-.89h0a.5.5,0,0,1-.5-.5v-.87H32a.49.49,0,0,1-.49-.49.5.5,0,0,1,.49-.5h.87v-.86a.5.5,0,1,1,1,0v.86h.87a.5.5,0,0,1,.49.5.49.49,0,0,1-.49.49h-.87v.87a.5.5,0,0,1-.49.5m-10-3.64a.89.89,0,1,1-1.77,0,.89.89,0,0,1,1.77,0m-2.76,2.76a.89.89,0,1,1,.89-.89.88.88,0,0,1-.89.89m2.76,1a.89.89,0,1,1-1.77,0,.89.89,0,0,1,1.77,0m1-1a.89.89,0,1,1,.88-.89.88.88,0,0,1-.88.89"/><path class="cls-10" d="M15.45,31c-1.57-3.45-1.45-8.66.06-11.44.15,1.6,2,2.85,1.84,4.07.6-1.37-1.83-3-1.2-5.55a4,4,0,0,1,3.35-2.8A6.86,6.86,0,0,0,19,22.47c1.2,2.57-2,2.34-3.4,3.76a7.73,7.73,0,0,1,1.72-.63c-.8.72-1.59,3.12-1.82,5.38m15-9.92c-5.93-.92-10.06,5.15-10.91-.7a6.57,6.57,0,0,1,3-6.65c3.4-2,9-1.06,11-2.2-1.57,3.12-7.5,2.86-9.16,6.63,3.57-4.51,11.93-2.2,13.85-3.65-.36,3.17-5.17,2-7.81,3.82,4.85-1.86,7.53,1.47,10.8.56-.32,3.72-5.87.69-7.93,1,2.8.25,6.34,3.94,8.77,3-1.34,5.25-10.89-1.48-16.08-.31,1.19-1.1,2.92-1.35,4.53-1.52m9.76,9.73a7.79,7.79,0,0,0-3.09-5.57c1.47.61,3,.17,3.52.66.66.66.38,3.58-.43,4.91"/></g></g></g></g></svg>