<svg xmlns="http://www.w3.org/2000/svg" xmlns:xlink="http://www.w3.org/1999/xlink" viewBox="0 0 1507.3 1461.15"><defs><style>.cls-1{fill:none;}.cls-2{isolation:isolate;}.cls-3{fill:#a7adc6;stroke:#000;}.cls-3,.cls-4,.cls-5{stroke-miterlimit:10;}.cls-11,.cls-12,.cls-14,.cls-4,.cls-6{fill:#fff;}.cls-4,.cls-5{stroke:#38211e;stroke-width:26px;}.cls-5{fill:#f2c896;}.cls-6{font-size:180px;font-family:ACaslonPro-Regular, Adobe Caslon Pro;letter-spacing:0.11em;}.cls-7{letter-spacing:0.1em;}.cls-8{letter-spacing:0.11em;}.cls-9{fill:#b18151;}.cls-10{opacity:0.83;}.cls-11{mix-blend-mode:soft-light;}.cls-12{opacity:0.71;mix-blend-mode:luminosity;}.cls-13{clip-path:url(#clip-path);}</style><clipPath id="clip-path"><rect class="cls-1" x="412.76" y="287.99" width="532.68" height="600.11"/></clipPath></defs><g class="cls-2"><g id="Layer_2" data-name="Layer 2"><g id="Background"><rect class="cls-3" x="0.5" y="0.5" width="1506.3" height="1443.68" rx="254.48"/></g><g id="Layer_1-2" data-name="Layer 1"><rect id="Mug_handle" data-name="Mug handle" class="cls-4" x="934.12" y="564.57" width="471.27" height="149.61"/><circle id="Mug" class="cls-4" cx="679.1" cy="608.43" r="522.9"/><circle id="Coffee" class="cls-5" cx="679.1" cy="608.52" r="425"/><text class="cls-6" transform="translate(305.04 1335.15)">unfilte<tspan class="cls-7" x="585.35" y="0">r</tspan><tspan class="cls-8" x="664.91" y="0">ed</tspan></text></g><g id="bubbles"><circle class="cls-9" cx="361.1" cy="684.95" r="11.39"/><circle class="cls-9" cx="421.74" cy="879.59" r="9.03"/><circle class="cls-9" cx="1051.65" cy="586.45" r="11.39"/><circle class="cls-9" cx="643.68" cy="214.68" r="9.42"/><circle class="cls-9" cx="753.65" cy="959.45" r="11.39"/><circle class="cls-9" cx="381.43" cy="359.25" r="5.7"/><circle class="cls-9" cx="540.43" cy="248.23" r="5.7"/><circle class="cls-9" cx="834.43" cy="279.23" r="5.7"/><circle class="cls-9" cx="1015.43" cy="667.86" r="5.7"/><circle class="cls-9" cx="976.49" cy="844.86" r="5.7"/><circle class="cls-9" cx="680.28" cy="927.86" r="5.7"/><circle class="cls-9" cx="680.28" cy="927.86" r="5.7"/><circle class="cls-9" cx="887.28" cy="927.86" r="5.7"/><circle class="cls-9" cx="534.73" cy="953.75" r="5.7"/><circle class="cls-9" cx="311.44" cy="511.25" r="5.7"/><circle class="cls-9" cx="387.13" cy="784.25" r="5.7"/><circle class="cls-9" cx="996.3" cy="567.82" r="5.7"/><circle class="cls-9" cx="1021.13" cy="483.25" r="5.7"/><circle class="cls-9" cx="355.4" cy="433.52" r="17.09"/><circle class="cls-9" cx="485.4" cy="302.01" r="17.09"/><circle class="cls-9" cx="834.43" cy="597.84" r="17.09"/><circle class="cls-9" cx="959.4" cy="353.56" r="17.09"/><circle class="cls-9" cx="317.14" cy="586.45" r="21.98"/><circle class="cls-9" cx="1015.43" cy="759.42" r="24.83"/><circle class="cls-9" cx="361.1" cy="684.95" r="11.39"/><circle class="cls-9" cx="421.74" cy="879.59" r="9.03"/><circle class="cls-9" cx="1051.65" cy="586.45" r="11.39"/><circle class="cls-9" cx="643.68" cy="214.68" r="9.42"/><circle class="cls-9" cx="317.14" cy="759.42" r="9.42"/><circle class="cls-9" cx="753.65" cy="959.45" r="11.39"/><circle class="cls-9" cx="603.65" cy="533.12" r="11.39"/><circle class="cls-9" cx="685.98" cy="652.77" r="11.39"/><circle class="cls-9" cx="381.43" cy="359.25" r="5.7"/><circle class="cls-9" cx="540.43" cy="248.23" r="5.7"/><circle class="cls-9" cx="834.43" cy="279.23" r="5.7"/><circle class="cls-9" cx="1015.43" cy="667.86" r="5.7"/><circle class="cls-9" cx="976.49" cy="844.86" r="5.7"/><circle class="cls-9" cx="680.28" cy="927.86" r="5.7"/><circle class="cls-9" cx="680.28" cy="927.86" r="5.7"/><circle class="cls-9" cx="887.28" cy="927.86" r="5.7"/><circle class="cls-9" cx="534.73" cy="953.75" r="5.7"/><circle class="cls-9" cx="311.44" cy="511.25" r="5.7"/><circle class="cls-9" cx="387.13" cy="784.25" r="5.7"/><circle class="cls-9" cx="996.3" cy="567.82" r="5.7"/><circle class="cls-9" cx="1021.13" cy="483.25" r="5.7"/><circle class="cls-9" cx="709.75" cy="561.34" r="5.7"/><circle class="cls-9" cx="569.75" cy="608.52" r="5.7"/><circle class="cls-9" cx="468.31" cy="580.75" r="5.7"/><circle class="cls-9" cx="355.4" cy="433.52" r="17.09"/><circle class="cls-9" cx="485.4" cy="302.01" r="17.09"/><circle class="cls-9" cx="834.43" cy="597.84" r="17.09"/><circle class="cls-9" cx="959.4" cy="353.56" r="17.09"/><circle class="cls-9" cx="615.04" cy="970.84" r="17.09"/><circle class="cls-9" cx="317.14" cy="586.45" r="21.98"/><circle class="cls-9" cx="1015.43" cy="759.42" r="24.83"/></g><g id="Foam"><g class="cls-10"><path class="cls-11" d="M922.49,417.15c-33.26-46.06-87.58-85.33-157-98.9C700.8,305.59,631.29,315.57,573.17,339c-62.65,25.24-112.25,65.43-143.75,112.69-33.7,50.57-46.73,107.76-45.7,163.85,1.06,58.45,15.44,119,52.61,171.06,34.34,48.1,91.34,89.14,162.55,105.29a299.47,299.47,0,0,0,49.54,6.86c50.31,11.7,106.23,4.49,153.08-13.75,64-24.92,110.2-68.23,136-117.8,28.16-54.19,34.27-113.35,34.21-170.95C971.59,535.13,961.93,471.79,922.49,417.15Zm23.1,301.55C932.48,769.33,905.24,823.63,849.54,857,801.21,885.86,734,902.12,672.38,891a194.76,194.76,0,0,1-41.7-12.41c-2-.86-6.5,2.36-9.77,5.37-54-10.81-102.15-36.5-137.14-68.72-48.5-44.67-72.24-101.59-81.61-157.82-8.93-53.55-6.18-108.86,13.41-161,18.56-49.38,53.26-97.29,108.6-129.11,51.36-29.54,117.48-46.78,182.72-44.26,67.64,2.61,127.43,28.73,169.52,67.41,48.06,44.17,70.23,99.76,77.82,155.53,4.1,30.07,4.45,60.42,3,90.61C955.88,664.13,952.58,691.65,945.59,718.7Z"/><path class="cls-11" d="M446,863.06C487.49,916.15,546.42,956.63,621,964.44c70.15,7.34,147.1-12.68,211.54-52.55,66.87-41.38,118.55-104,149.36-171.56,31.32-68.64,42.59-142.15,30.73-210.1C1001.06,463.8,969,403.61,920.15,358.6c-48-44.27-111.84-71.39-182.19-79.29-68.58-7.71-142.38,2.45-210.9,30.28a454.28,454.28,0,0,0-47.91,22.84c-1.65.91-2.6,4.28-3.17,6.78-53.42,21.44-95.69,70.31-117.37,120.53-30.88,71.53-22.69,145.89-3.55,212C374.83,739.93,402.53,807.55,446,863.06Zm-63.23-139c-24.54-62.77-46.92-132-37.57-204.15,4.31-33.24,17-65.19,38.34-94.54,20.17-27.69,47.45-52.3,79.18-67.35a158,158,0,0,1,48.83-14.19c3.32-.4,5.46-15,4.23-14.89q-2.6.31-5.16.72a446.36,446.36,0,0,1,168-37.82c68.12-1.65,134.21,13.32,188.24,45.16,56.88,33.52,99.36,84.94,123.3,144.84A310.33,310.33,0,0,1,1001,679.47c-18.82,68-60.85,134.07-118.55,183.75C825.87,911.9,754.17,943,682.79,949.67c-34.84,3.28-69.42.67-101-8.57a243.12,243.12,0,0,1-88.46-47.87C440.72,848.93,407.41,787.17,382.72,724.05Z"/><path class="cls-12" d="M1060.32,536.27A454,454,0,0,0,953.61,327c-26.84-29.74-58.7-56.42-96.19-74.46C816.61,232.94,771,226.33,725.23,228.9c-47.78,2.69-95.05,13.63-140.6,26.69-41,11.74-81,26.6-117.79,47-38.52,21.28-73.17,49-100.13,82-26,31.9-44.82,68.06-57.36,106.13-24.77,75.19-26.93,157-6.93,233.35,19.67,75,62.06,145.09,126,196,60.74,48.34,138.72,79.54,219.43,83.44a347.27,347.27,0,0,0,54.82-1.73,61.21,61.21,0,0,0-5.74,5.52c-.66.68-6.4,7.28-3.71,7.09,76.64-5.45,149.09-34.86,208.76-78.63,61.3-45,111.43-104.31,139.41-171.76C1071.41,691.6,1076.31,612,1060.32,536.27Zm-15.1,174.16a354.68,354.68,0,0,1-99.53,182.74c-48.92,48-114.08,83-183.87,98.24a377.56,377.56,0,0,1-49.63,7.37,57.31,57.31,0,0,0,6-5.69c.63-.64,6.32-7.41,3.71-7.09-78.44,9.67-158.4-8.78-225.53-46.37-69.2-38.76-122.26-97-154-165.15-32.67-70.09-43-148.34-33-223.81,9.81-74,38.79-152.7,100.88-203.77,30.53-25.12,67.15-43.5,104.84-57.94,40.37-15.47,82.87-26.9,125.6-35.44,46.37-9.26,95.21-14.23,142.12-5.24,40.56,7.78,77.35,26.43,108.73,50.9,62.27,48.55,107,117.05,133.48,187.33C1052,558,1060.29,635.83,1045.22,710.43Z"/></g><g class="cls-13"><path class="cls-14" d="M721.21,690.25c-26.11,7-67.26,7-93.37,0-25.05-6.79-49-15.7-73.87-22.71-23.32-6.56-49.44-11.62-73.38-4.07-20.73,6.53-35.4,20.65-43.06,37.6-10.09,22.4-7.67,48.08-1.14,70.93,12.51,43.71,45.26,106.65,105.85,115.12,27.43,3.81,54.75-4.18,80.53-10.93,44.86-11.77,58.65-11.77,103.5,0,25.78,6.75,53.14,14.74,80.58,10.93,60.55-8.47,93.3-71.41,105.8-115.12,6.53-22.85,9-48.53-1.13-70.93-7.67-17-22.34-31.07-43.06-37.6-24-7.55-50.06-2.49-73.39,4.07-24.86,7-48.81,15.92-73.86,22.71m58.06,144a53,53,0,1,1,53-53,53,53,0,0,1-53,53m0-17.2h0a9.57,9.57,0,0,1-9.54-9.54V790.77H753a9.54,9.54,0,0,1,0-19.07h16.72V755a9.54,9.54,0,0,1,19.07,0V771.7h16.69a9.54,9.54,0,0,1,0,19.07H788.8v16.69a9.57,9.57,0,0,1-9.53,9.54m-192.4-69.94a17,17,0,1,1-17-17,17,17,0,0,1,17,17m-53,53a17,17,0,1,1,17-17,17,17,0,0,1-17,17m53,19a17,17,0,1,1-17-17,17,17,0,0,1,17,17m19-19a17,17,0,1,1,17-17,17,17,0,0,1-17,17"/><path class="cls-14" d="M434.41,662.74c-30.22-66.31-27.87-166.61,1.21-220.27,2.9,30.81,38.11,54.87,35.47,78.48,11.48-26.36-35.21-57.17-23.07-107,6.86-28.23,31.87-47.23,64.36-53.76-32.09,40.19-31.06,94.62-10.56,138.67,23.11,49.62-38,45.07-65.35,72.54a155.32,155.32,0,0,1,33-12.25c-15.4,13.94-30.62,60.18-35.06,103.57m288.71-191C608.84,454.1,529.44,570.91,513,458.32c-7.3-50,13.57-102.11,57.4-128C635.9,291.44,743,309.85,781.43,288c-30.22,60-144.32,55-176.3,127.67,68.62-87,229.59-42.5,266.7-70.27-7,60.88-99.64,38.14-150.55,73.5,93.49-35.8,145.09,28.28,208.13,10.74-6.3,71.56-113,13.35-152.71,19.41,53.95,4.87,122.09,75.88,168.74,58-25.78,101.07-209.63-28.43-309.5-5.91,22.81-21.16,56.26-26,87.18-29.41M911,659.11c0-40.09-29.34-84.87-59.34-107.2,28.2,11.74,58.24,3.34,67.74,12.8,12.68,12.58,7.18,68.77-8.4,94.4"/></g></g></g></g></svg>