<svg xmlns="http://www.w3.org/2000/svg" viewBox="0 0 1240 1240"><defs><style>.cls-1{fill:#b17f4a;}.cls-2{fill:#fff;}</style></defs><g id="Layer_2" data-name="Layer 2"><g id="Contact_Symbols"><path class="cls-1" d="M1240,620C1240,277.58,962.41,0,620,0S0,277.58,0,620s277.58,620,620,620S1240,962.41,1240,620Z"/><path class="cls-2" d="M971.8,889.66,835.1,753a42.16,42.16,0,0,0-21.44-11.56,308.38,308.38,0,1,0-50.25,50.25A42.16,42.16,0,0,0,775,813.1l136.7,136.69a42.52,42.52,0,0,0,60.13-60.13ZM571.86,778.94a229.08,229.08,0,1,1,162-67.09A227.62,227.62,0,0,1,571.86,778.94Z"/></g></g></svg>